<?xml version="1.0" standalone="no"?>
<!DOCTYPE svg PUBLIC "-//W3C//DTD SVG 20010904//EN"
 "http://www.w3.org/TR/2001/REC-SVG-20010904/DTD/svg10.dtd">
<svg version="1.0" xmlns="http://www.w3.org/2000/svg"
 width="1336.000000pt" height="1336.000000pt" viewBox="0 0 1336.000000 1336.000000"
 preserveAspectRatio="xMidYMid meet">
<metadata>
Created by potrace 1.14, written by Peter Selinger 2001-2017
</metadata>
<g transform="translate(0.000000,1336.000000) scale(0.100000,-0.100000)"
fill="#000000" stroke="none">
<path d="M8255 12470 c-230 -61 -425 -155 -600 -289 -124 -95 -243 -229 -302
-341 -93 -174 -121 -216 -209 -309 -35 -38 -48 -44 -85 -46 -32 -2 -65 -15
-119 -46 -73 -43 -76 -44 -165 -44 -70 0 -123 8 -240 37 -143 36 -247 60 -380
90 -81 18 -518 18 -595 0 -30 -7 -106 -29 -169 -49 -110 -34 -118 -35 -210
-28 -167 13 -181 13 -186 4 -3 -4 23 -66 59 -136 92 -181 115 -251 116 -344 0
-61 -11 -91 -91 -239 -103 -190 -128 -256 -138 -359 -10 -108 -29 -141 -104
-173 -28 -13 -85 -40 -125 -60 -40 -21 -75 -38 -77 -38 -3 0 -16 22 -30 49
-13 28 -30 54 -37 58 -7 4 -20 20 -28 34 -8 15 -31 53 -50 85 -19 32 -36 70
-38 84 -2 14 -7 27 -13 28 -5 2 -9 15 -9 28 0 14 -4 23 -10 19 -5 -3 -9 17 -9
50 1 30 -3 61 -9 68 -5 6 -15 49 -21 95 -6 45 -15 91 -21 102 -5 10 -10 37
-10 59 0 22 -6 60 -14 83 -7 24 -21 70 -30 103 -29 102 -31 105 -71 105 -32 0
-38 -4 -51 -37 -9 -21 -25 -58 -36 -83 -12 -25 -22 -49 -23 -55 -2 -5 -18 -44
-38 -85 -101 -218 -140 -512 -98 -756 19 -114 64 -247 106 -310 27 -42 121
-104 157 -104 65 0 67 -11 21 -102 -44 -87 -68 -186 -57 -235 4 -15 9 -67 11
-115 4 -71 1 -100 -17 -158 -29 -94 -74 -160 -127 -185 -57 -28 -109 -79 -146
-145 -38 -67 -107 -137 -170 -174 -62 -37 -179 -76 -226 -76 -88 0 -231 60
-231 96 0 9 24 40 53 68 99 99 200 305 201 411 1 114 -32 164 -151 231 -77 43
-219 182 -264 259 -56 96 -31 169 80 232 173 100 233 158 256 250 10 39 9 57
-7 117 -12 48 -18 105 -18 185 0 130 19 222 70 344 40 97 151 292 226 397 60
84 126 223 139 290 18 96 98 312 148 400 64 112 158 185 290 226 31 10 57 21
57 25 0 4 -33 26 -72 50 -40 24 -93 56 -116 72 -53 35 -59 33 -152 -48 -148
-128 -287 -290 -381 -445 -82 -134 -120 -218 -224 -495 -18 -49 -49 -128 -68
-175 -122 -302 -125 -308 -242 -520 -61 -111 -76 -137 -121 -204 -51 -78 -114
-200 -154 -302 -33 -82 -105 -326 -133 -449 -124 -543 -177 -831 -177 -971 0
-72 -5 -113 -17 -140 -25 -60 -30 -279 -9 -374 39 -170 100 -272 270 -450 107
-112 150 -187 167 -288 11 -66 10 -74 -7 -93 -13 -15 -26 -19 -45 -15 -20 4
-33 -1 -50 -20 -13 -14 -24 -31 -25 -37 -3 -32 -17 -55 -30 -50 -8 3 -14 -1
-14 -11 0 -9 -3 -16 -7 -16 -5 0 -9 -12 -10 -27 0 -15 -6 -29 -12 -31 -6 -2
-11 -14 -11 -27 0 -12 -6 -25 -13 -28 -8 -3 -19 -27 -25 -54 -6 -26 -15 -66
-21 -88 -5 -22 -8 -50 -4 -62 3 -14 1 -23 -6 -23 -6 0 -11 -17 -11 -37 0 -21
-7 -51 -16 -68 -8 -16 -18 -48 -21 -72 -3 -24 -16 -55 -29 -71 -13 -15 -24
-31 -24 -35 0 -5 -4 -6 -10 -2 -12 7 -95 -79 -112 -116 -7 -16 -16 -29 -20
-29 -5 0 -8 -5 -8 -11 0 -6 -14 -30 -30 -55 -17 -24 -27 -44 -23 -44 4 0 0 -5
-9 -11 -10 -5 -18 -15 -18 -21 0 -5 -17 -31 -39 -57 -33 -40 -87 -120 -176
-261 -33 -53 -179 -299 -207 -350 -41 -73 -99 -172 -122 -210 -114 -179 -192
-336 -216 -430 -11 -47 -25 -148 -30 -225 -13 -187 -43 -279 -142 -435 -97
-153 -142 -247 -212 -440 -41 -113 -104 -281 -141 -375 -37 -93 -72 -183 -78
-200 -6 -16 -33 -75 -60 -130 -126 -256 -172 -428 -183 -683 l-7 -152 791 0
c436 1 792 5 792 9 0 12 -97 187 -133 241 -17 25 -61 82 -99 128 -37 46 -86
115 -109 155 -23 40 -66 113 -95 163 -30 50 -54 98 -54 107 0 20 31 23 63 5
34 -18 136 -37 197 -37 82 -1 124 13 172 53 23 20 46 35 51 33 10 -3 59 -83
81 -133 8 -17 19 -35 25 -38 6 -4 11 -18 11 -31 0 -13 4 -25 9 -27 7 -2 43
-76 52 -106 2 -4 8 -13 15 -19 7 -7 22 -29 35 -50 28 -46 133 -149 172 -168
47 -24 197 -37 257 -22 14 3 198 9 410 12 547 7 1060 34 1250 65 30 5 89 14
130 20 41 7 82 14 90 17 8 2 40 9 70 14 30 5 80 16 110 25 30 8 85 24 123 34
241 68 459 141 485 163 8 6 21 12 30 14 10 1 62 23 117 48 55 25 126 58 158
72 31 14 57 30 57 34 0 5 7 9 15 9 8 0 39 13 70 30 30 17 81 44 113 61 31 17
65 38 75 47 10 9 24 17 32 18 8 1 28 12 44 23 16 12 32 21 35 21 4 0 24 11 45
25 35 23 50 26 162 30 163 6 298 20 554 56 316 46 330 49 368 92 23 27 33 69
53 226 18 146 41 219 98 303 53 80 103 125 163 148 64 24 72 24 201 5 89 -13
110 -14 170 -1 133 28 243 101 316 211 34 51 34 103 0 192 -83 218 -88 241
-89 458 -2 245 -11 279 -93 379 -45 54 -71 70 -137 84 -61 13 -96 7 -173 -28
-101 -47 -221 -141 -330 -257 -101 -110 -159 -150 -264 -183 -20 -6 -38 -16
-40 -21 -5 -16 -246 -12 -341 6 -171 32 -731 213 -982 317 -60 26 -161 65
-224 88 -63 23 -162 61 -220 85 -58 23 -119 45 -135 49 -41 10 -292 131 -300
145 -4 6 -12 9 -17 6 -5 -3 -6 1 -3 9 14 37 -20 92 -115 185 -136 133 -335
258 -472 295 -136 38 -157 45 -205 69 -71 36 -154 114 -204 194 -62 97 -122
156 -225 220 -118 74 -151 106 -171 167 -15 43 -15 59 -5 110 23 112 80 201
173 273 137 105 143 237 18 467 -93 174 -94 360 -2 442 26 22 33 23 195 24
184 0 272 13 378 56 73 29 254 124 314 164 87 58 150 81 247 90 103 10 227 4
273 -12 49 -18 65 -45 65 -114 0 -33 -5 -87 -11 -120 -22 -116 28 -222 139
-293 126 -80 452 -114 682 -71 64 12 189 26 282 31 184 9 218 15 282 53 45 27
146 134 236 251 96 125 197 250 211 262 8 6 35 23 61 37 66 36 137 35 248 -5
47 -17 94 -33 105 -36 30 -9 143 -91 180 -132 46 -50 75 -110 82 -173 7 -67
50 -161 96 -214 26 -30 51 -46 92 -59 57 -18 61 -17 130 9 48 18 187 21 218 4
42 -22 100 -19 207 13 68 20 117 29 141 26 47 -6 69 6 61 35 -3 12 -49 65
-101 118 -106 106 -120 118 -206 174 -86 57 -144 122 -192 217 -72 142 -49
168 66 76 72 -59 110 -82 118 -73 3 3 0 75 -7 159 -10 120 -11 179 -2 268 31
302 23 700 -17 884 -24 113 -66 240 -124 375 -85 200 -131 264 -257 360 -99
75 -186 146 -208 170 -24 26 -24 35 -3 114 5 22 7 84 4 141 -6 105 -7 97 52
350 21 89 45 215 45 238 0 33 -29 17 -65 -35 -20 -29 -47 -69 -61 -88 -13 -19
-28 -40 -34 -47 -5 -7 -10 -16 -10 -21 0 -5 -6 -15 -14 -21 -8 -6 -19 -32 -25
-57 -6 -25 -16 -42 -20 -39 -5 3 -13 -9 -16 -27 -4 -18 -13 -42 -21 -53 -7
-11 -16 -37 -20 -58 -3 -21 -17 -61 -30 -88 -29 -59 -31 -58 -119 31 -33 33
-84 75 -113 93 -29 18 -55 41 -58 53 -9 34 32 152 81 238 25 43 45 81 45 83 0
3 31 58 69 122 156 265 185 317 237 429 78 166 114 197 171 152 14 -11 30 -20
35 -20 6 0 42 31 82 68 62 60 162 131 184 132 4 0 24 17 46 36 42 40 57 94 37
133 -15 27 -68 27 -166 1z m49 -2322 c15 -19 17 -34 12 -87 -7 -85 13 -122 75
-135 49 -9 45 -85 -8 -162 -14 -22 -39 -68 -55 -104 -16 -36 -36 -76 -43 -91
-8 -14 -17 -47 -20 -75 -6 -45 -4 -52 28 -94 52 -68 68 -104 61 -139 -6 -29
-37 -71 -53 -71 -4 0 -29 -20 -56 -45 -31 -30 -63 -77 -94 -138 -39 -76 -51
-93 -72 -95 -34 -4 -53 36 -78 163 -11 55 -30 150 -43 210 -33 160 -31 399 5
575 30 142 72 238 119 272 72 51 187 59 222 16z m-1968 -56 c34 -23 67 -42 73
-42 6 0 21 16 33 36 21 36 21 36 74 29 66 -8 160 -44 224 -85 l48 -31 47 35
c27 21 58 36 74 36 32 0 76 -43 117 -115 30 -53 157 -185 178 -185 29 0 103
-80 132 -142 27 -58 29 -72 29 -178 -1 -130 -13 -168 -101 -317 -93 -159 -178
-243 -243 -243 -48 1 -188 67 -287 137 -55 38 -179 109 -278 158 -126 63 -192
102 -226 135 -46 43 -48 48 -55 115 -4 39 -7 97 -6 130 3 68 41 189 77 243 32
47 26 100 -27 205 -21 43 -39 90 -39 104 0 24 2 25 48 21 34 -3 64 -16 108
-46z m1955 -1149 c19 -51 33 -112 27 -119 -4 -3 -21 4 -37 16 -28 19 -31 27
-31 76 0 42 3 54 15 54 9 0 20 -12 26 -27z m-1750 -139 c36 -15 59 -43 59 -75
0 -14 -38 -11 -43 4 -2 6 -14 -5 -27 -26 -21 -36 -35 -44 -92 -49 -26 -3 -27
-5 -15 -28 9 -19 22 -26 50 -28 52 -4 42 -24 -19 -39 -67 -15 -87 -15 -109 1
-19 14 -18 19 16 75 19 32 19 34 3 52 -9 11 -23 19 -31 19 -7 0 -13 9 -13 19
0 30 95 79 172 90 4 1 26 -6 49 -15z m-373 -73 c-14 -24 9 -82 59 -150 18 -24
33 -50 33 -58 0 -37 -132 73 -144 121 -9 35 8 80 35 93 31 16 31 16 17 -6z
m-2857 -2368 c27 -16 49 -35 49 -43 0 -8 -25 -77 -55 -154 -30 -76 -55 -141
-55 -143 0 -3 45 50 100 118 55 68 104 125 109 127 15 5 101 -52 101 -68 0 -8
-25 -80 -55 -160 -30 -80 -47 -135 -37 -124 9 12 55 70 101 128 46 58 87 106
92 106 16 0 99 -55 99 -65 -1 -10 -18 -30 -208 -248 l-92 -107 97 63 c54 35
160 103 236 152 l139 88 59 -59 59 -59 -78 -130 c-43 -72 -107 -181 -142 -242
-36 -62 -67 -113 -70 -112 -3 0 -27 20 -54 44 l-49 44 26 44 26 44 -39 38 -39
38 -42 -25 -43 -26 -48 41 -48 40 -23 -21 -22 -20 -55 32 c-43 26 -54 38 -52
56 1 12 24 81 51 153 27 73 49 133 47 134 -1 1 -50 -53 -108 -121 l-105 -124
-53 31 c-28 16 -54 36 -57 44 -3 7 9 51 26 96 18 45 55 147 83 227 65 186 66
190 74 190 3 0 28 -12 55 -27z m922 -509 c42 -21 76 -52 94 -87 17 -34 9 -47
-46 -72 l-40 -18 -26 32 c-28 32 -62 40 -83 19 -20 -20 -14 -47 24 -109 46
-74 54 -130 26 -186 -41 -79 -122 -122 -193 -103 -66 18 -159 103 -159 145 0
16 104 69 108 56 10 -29 56 -71 77 -71 28 0 56 35 47 59 -3 9 -21 39 -39 67
-45 67 -51 109 -25 165 39 83 87 119 160 119 24 0 57 -7 75 -16z m217 -149
c28 -14 50 -28 50 -30 0 -3 -18 -41 -40 -85 -22 -44 -40 -83 -40 -88 0 -4 20
-18 45 -30 l44 -21 46 84 c26 47 51 85 57 85 17 0 98 -51 98 -62 0 -19 -231
-458 -241 -458 -12 0 -109 49 -109 55 0 2 22 47 50 98 l50 93 -46 22 c-25 12
-48 20 -52 18 -4 -2 -27 -43 -52 -90 -25 -47 -51 -86 -57 -86 -20 0 -103 43
-103 53 0 16 235 467 243 467 4 0 30 -11 57 -25z m424 -218 c18 -13 17 -17
-26 -93 -25 -43 -76 -133 -113 -199 -37 -66 -76 -135 -87 -153 l-20 -33 -47
27 c-25 15 -50 30 -55 35 -7 6 212 412 246 456 10 13 56 -5 102 -40z m-1509
-14 c25 -16 45 -33 45 -38 0 -6 -20 -42 -45 -80 -25 -39 -45 -73 -45 -77 0 -8
70 -58 81 -58 4 0 25 30 48 68 22 37 45 73 50 81 8 12 18 8 60 -18 28 -18 51
-37 51 -43 0 -11 -258 -426 -270 -433 -14 -9 -112 56 -106 70 2 7 25 44 50 84
25 39 47 76 49 81 1 5 -17 21 -40 35 l-42 26 -34 -53 c-18 -29 -42 -68 -52
-85 -11 -18 -25 -33 -33 -33 -13 0 -102 57 -102 65 0 2 48 80 108 174 59 93
119 190 134 215 15 25 32 46 37 46 6 0 31 -12 56 -27z m1651 -60 l56 -28 -6
-85 c-4 -47 -9 -112 -11 -145 l-5 -60 56 115 c30 63 57 116 59 119 8 7 95 -34
95 -46 0 -22 -205 -445 -218 -451 -7 -2 -36 6 -64 19 l-50 24 6 140 6 140 -55
-112 c-29 -62 -59 -113 -65 -113 -16 0 -90 39 -90 47 0 15 215 463 222 463 4
0 33 -12 64 -27z m-1288 -158 l53 -24 -15 -33 c-8 -18 -34 -76 -59 -129 -85
-178 -96 -241 -44 -247 16 -2 34 1 41 7 7 6 48 88 91 181 43 94 82 170 87 170
23 0 108 -44 108 -56 0 -7 -21 -57 -46 -111 -25 -54 -54 -119 -65 -145 -45
-114 -104 -174 -182 -184 -61 -9 -146 31 -182 84 -28 41 -33 113 -12 169 36
93 153 343 162 343 5 0 34 -11 63 -25z m1777 -58 c40 -22 88 -82 82 -101 -2
-5 -25 -21 -51 -35 -36 -20 -50 -23 -53 -13 -8 22 -46 52 -65 52 -84 0 -168
-210 -108 -270 28 -28 56 -26 64 4 3 13 8 31 11 38 4 9 -4 19 -19 26 l-26 11
21 48 c11 26 22 49 24 51 8 9 145 -52 145 -64 0 -15 -86 -244 -95 -253 -4 -3
-32 -6 -63 -5 -179 2 -258 169 -173 366 24 57 82 123 130 148 50 27 126 25
176 -3z m398 -241 c-22 -57 -26 -59 -68 -42 -21 9 -39 16 -40 16 -4 0 -47
-101 -105 -242 -29 -71 -54 -128 -57 -128 -17 0 -103 45 -103 54 0 6 32 87 70
181 39 93 70 173 70 177 0 5 -16 16 -35 25 -40 19 -41 23 -16 80 l20 42 140
-61 140 -61 -16 -41z m-1668 64 c45 -28 84 -72 87 -100 3 -20 -5 -27 -45 -44
l-48 -20 -25 32 c-31 40 -69 43 -86 8 -9 -21 -5 -35 26 -95 42 -82 47 -138 15
-190 -26 -43 -38 -55 -76 -75 -68 -35 -170 -6 -224 64 -48 63 -47 76 11 105
49 25 70 26 70 3 0 -21 43 -58 67 -58 15 0 27 9 35 25 9 21 6 34 -26 94 -39
74 -44 113 -22 164 44 103 151 142 241 87z m1932 -84 c68 -35 99 -105 90 -206
-13 -160 -106 -292 -216 -307 -126 -17 -211 64 -211 201 0 163 95 314 211 335
47 8 77 3 126 -23z m-1737 -51 c28 -14 50 -30 50 -35 0 -6 -18 -46 -40 -90
-22 -44 -38 -80 -36 -80 2 0 41 29 87 65 45 36 86 65 90 65 5 0 29 -10 54 -22
70 -34 62 -51 -56 -133 l-101 -70 4 -159 c2 -101 -1 -160 -7 -162 -5 -2 -37
11 -70 29 l-59 32 3 113 c1 61 -1 112 -4 112 -3 0 -24 -39 -46 -87 -22 -48
-42 -89 -44 -91 -1 -2 -30 10 -63 27 l-61 31 108 222 c59 123 110 231 114 241
8 23 18 22 77 -8z m1997 -56 c18 -7 22 -18 27 -76 12 -129 23 -198 28 -183 3
8 18 62 34 120 15 58 29 106 30 108 1 2 22 -2 48 -9 56 -14 56 -15 16 -164
-16 -60 -42 -158 -56 -217 -30 -120 -27 -117 -109 -97 l-43 11 -11 81 c-6 45
-13 109 -16 142 -4 33 -8 61 -9 62 -1 2 -15 -54 -31 -122 -16 -69 -31 -128
-35 -130 -8 -5 -82 14 -93 24 -9 9 70 344 109 459 4 14 63 9 111 -9z m-1573
-165 c25 -14 46 -28 46 -31 0 -11 -232 -434 -252 -460 -8 -9 -22 -5 -61 17
-29 16 -53 34 -55 39 -3 9 27 65 193 359 31 56 63 102 70 102 7 0 33 -12 59
-26z m259 -133 c37 -17 67 -33 67 -35 0 -18 -44 -96 -55 -96 -7 0 -34 9 -60
20 -26 11 -50 20 -54 20 -7 0 -45 -71 -39 -74 2 -1 27 -13 56 -26 28 -13 52
-30 52 -37 0 -14 -37 -93 -44 -93 -2 0 -28 11 -57 25 -30 13 -57 21 -61 17 -4
-4 -14 -23 -22 -43 l-15 -37 64 -27 c36 -16 65 -34 65 -42 0 -21 -39 -93 -50
-93 -22 0 -240 103 -240 114 0 10 179 408 209 463 l11 23 53 -24 c28 -13 82
-38 120 -55z m-1553 -43 c34 -18 52 -36 75 -78 26 -49 30 -65 30 -140 0 -101
-11 -222 -25 -269 -12 -42 -41 -75 -99 -112 -67 -43 -106 -38 -199 25 -51 35
-92 110 -112 203 -17 84 -9 146 28 223 25 52 43 73 90 107 97 70 138 78 212
41z m1867 -73 c32 -21 72 -65 73 -81 0 -11 -72 -64 -88 -64 -5 0 -18 11 -30
25 -35 40 -92 29 -92 -18 0 -11 15 -38 34 -61 18 -23 40 -55 50 -73 36 -72 7
-168 -66 -216 -37 -24 -51 -28 -98 -25 -64 5 -133 45 -163 97 l-18 30 48 35
48 35 31 -35 c39 -42 76 -45 93 -8 10 22 9 30 -4 48 -85 118 -85 118 -85 165
0 53 42 130 82 152 56 30 132 28 185 -6z m-1452 -138 c139 -44 194 -119 196
-267 1 -81 -16 -116 -86 -176 -64 -56 -129 -84 -197 -84 -55 0 -114 39 -162
108 -39 55 -47 149 -21 237 22 78 89 149 165 175 66 23 56 22 105 7z m-915
-58 c70 -35 133 -120 169 -226 36 -108 24 -212 -36 -296 -19 -27 -33 -51 -30
-53 2 -2 38 12 80 31 146 68 344 103 402 72 17 -9 59 -44 94 -78 109 -106 205
-323 236 -532 6 -40 3 -56 -19 -101 -34 -70 -131 -162 -178 -168 -59 -9 -164
10 -259 48 -82 32 -101 45 -151 97 -64 69 -106 87 -207 87 -115 0 -236 26
-274 59 -21 18 -54 89 -63 137 -11 61 36 145 110 193 64 42 136 94 133 97 -2
2 -20 -2 -40 -8 -33 -10 -42 -9 -80 12 -59 32 -120 93 -152 153 -69 126 -29
332 87 444 68 66 100 72 178 32z m1319 -422 c142 -70 161 -287 37 -411 -158
-159 -291 -196 -387 -109 -51 46 -65 74 -80 157 -11 59 -11 73 6 119 29 84 64
131 141 188 122 91 187 103 283 56z"/>
<path d="M3790 5804 c-36 -25 -66 -48 -68 -52 -1 -5 10 -17 26 -29 l27 -20 47
73 c26 41 44 74 40 73 -4 0 -36 -21 -72 -45z"/>
<path d="M6027 4812 c-22 -24 -54 -98 -62 -144 -17 -90 22 -148 74 -111 57 41
105 186 82 246 -9 22 -17 27 -44 27 -20 0 -41 -7 -50 -18z"/>
<path d="M620 8379 l0 -742 464 5 c256 3 469 2 474 -1 5 -3 46 -148 91 -321
115 -444 222 -857 272 -1052 23 -93 45 -168 48 -168 3 0 33 40 66 88 32 48
131 183 218 300 87 117 180 247 207 290 83 130 200 451 200 548 0 41 -70 166
-119 214 -106 103 -204 237 -265 360 l-41 85 0 170 c1 94 6 203 13 243 7 40
17 129 22 198 12 138 42 351 65 447 8 34 15 65 15 70 0 4 -389 7 -865 7 l-865
0 0 -741z"/>
<path d="M9400 8385 l0 -735 501 0 502 0 -6 -35 c-3 -20 -22 -93 -41 -163 -19
-70 -51 -188 -71 -262 -20 -74 -56 -207 -80 -295 -52 -191 -181 -667 -260
-960 -31 -115 -67 -248 -80 -295 -13 -47 -49 -179 -80 -295 -31 -115 -83 -307
-115 -425 -32 -118 -107 -393 -165 -610 -59 -217 -119 -440 -134 -495 -16 -55
-39 -139 -51 -187 -13 -49 -27 -88 -31 -88 -5 0 -13 17 -18 38 -13 49 -399
1590 -464 1855 -28 114 -54 207 -58 207 -10 0 -97 -203 -130 -303 -33 -101
-37 -184 -15 -287 43 -198 88 -385 109 -455 13 -44 32 -114 42 -155 10 -41 40
-129 68 -195 27 -66 70 -178 97 -250 26 -71 68 -179 93 -240 40 -98 156 -500
186 -644 19 -90 35 -750 21 -856 -14 -113 -38 -201 -58 -217 -12 -10 -204 -14
-888 -18 -480 -3 -875 -7 -877 -10 -3 -3 12 -72 33 -155 21 -82 75 -294 120
-469 44 -175 83 -323 86 -327 3 -5 522 -9 1154 -9 l1150 0 6 27 c6 29 26 107
100 388 25 94 60 229 79 300 18 72 54 209 80 305 25 96 59 225 75 285 15 61
38 146 50 189 20 74 34 128 114 436 18 69 72 271 119 450 47 179 194 739 327
1245 132 506 249 952 260 990 11 39 45 167 75 285 31 118 67 256 80 305 14 50
59 221 100 380 112 425 161 614 201 765 20 74 40 155 46 180 6 25 14 50 19 56
6 8 141 10 469 6 l460 -5 0 742 0 741 -1600 0 -1600 0 0 -735z"/>
<path d="M8572 7600 c-103 -27 -286 -119 -349 -176 -62 -54 -84 -110 -60 -147
19 -29 210 -222 265 -268 37 -32 42 -41 42 -76 0 -95 15 -114 95 -129 58 -10
145 -80 145 -116 -1 -103 -286 -321 -505 -386 -150 -44 -241 -62 -373 -72 -75
-6 -212 -18 -303 -26 -151 -14 -173 -14 -265 1 -188 31 -346 90 -461 173 -17
12 -34 22 -38 22 -4 0 -29 18 -55 40 -49 41 -70 49 -70 28 0 -9 -4 -8 -10 2
-8 12 -10 10 -9 -10 0 -25 5 -29 129 -114 81 -55 217 -113 385 -163 63 -19
397 -24 637 -11 141 8 178 7 237 -6 82 -19 297 -22 350 -5 119 38 183 63 188
75 3 8 11 14 19 14 8 0 14 6 14 14 0 28 70 31 70 3 0 -7 7 -20 15 -31 13 -18
14 -17 20 7 5 17 -3 47 -23 93 -51 115 -51 113 13 185 31 35 63 80 71 99 20
46 41 68 89 92 54 28 128 88 177 143 60 68 78 143 88 355 5 96 6 188 2 204 -7
38 -77 108 -140 140 -68 34 -194 66 -261 65 -31 0 -89 -9 -129 -19z"/>
<path d="M3750 2003 c-398 -2 -728 -7 -732 -11 -4 -4 10 -79 32 -167 88 -358
132 -546 152 -650 12 -60 26 -116 31 -123 8 -9 244 -12 1146 -10 l1136 3 17
55 c9 30 28 98 42 150 28 105 83 313 122 460 14 52 34 125 44 161 11 36 21 81
22 100 l3 34 -645 0 c-355 0 -971 -1 -1370 -2z"/>
</g>
</svg>
